# xmcd
#
# Track frame offsets: 
#        150
#        19350
#        32506
#        48292
#        60896
#        70462
#        89880
#        113725
#        126958
#
# Disc length: 1950 seconds
#
# Revision: 0
# Processed by: cddbd v1.5.2PL0 Copyright (c) Steve Scherf et al.
# Submitted via: ExactAudioCopy v1.0b4
#
DISCID=79079c09
DTITLE=Huey Colbinger - Colbinger EP
DYEAR=2008
DGENRE=Blues
TTITLE0=Day I Die
TTITLE1=Selfish Pride
TTITLE2=Never Say Never
TTITLE3=I Don´t Really Like You
TTITLE4=Stand Tall
TTITLE5=Day I Die (live)
TTITLE6=It Aint No Easy (live)
TTITLE7=Selfish Pride (live)
TTITLE8=Deep End (live)
EXTD=
EXTT0=
EXTT1=
EXTT2=
EXTT3=
EXTT4=
EXTT5=
EXTT6=
EXTT7=
EXTT8=
PLAYORDER=
